<svg width="512" height="512" viewBox="0 0 512 512" fill="none" xmlns="http://www.w3.org/2000/svg">
<rect width="512" height="512" fill="black"/>
<path d="M95.2817 367H52.1098L130.713 143.727H180.644L259.357 367H216.185L156.551 189.516H154.807L95.2817 367ZM96.6989 279.457H214.44V311.945H96.6989V279.457ZM288.765 367V143.727H372.492C389.644 143.727 404.035 146.707 415.664 152.667C427.365 158.627 436.196 166.985 442.156 177.741C448.188 188.425 451.204 200.89 451.204 215.135C451.204 229.453 448.152 241.882 442.047 252.42C436.014 262.886 427.111 270.99 415.337 276.732C403.563 282.401 389.099 285.235 371.947 285.235H312.313V251.657H366.496C376.526 251.657 384.739 250.276 391.134 247.514C397.53 244.68 402.254 240.573 405.307 235.195C408.432 229.744 409.995 223.057 409.995 215.135C409.995 207.213 408.432 200.454 405.307 194.858C402.182 189.189 397.421 184.9 391.025 181.993C384.63 179.013 376.38 177.523 366.278 177.523H329.211V367H288.765ZM404.108 265.83L459.381 367H414.247L359.955 265.83H404.108Z" fill="white"/>
</svg>
