<svg width="512" height="512" viewBox="0 0 512 512" fill="none" xmlns="http://www.w3.org/2000/svg">
<rect width="512" height="512" fill="white"/>
<path d="M63.8078 393C59.8078 393 57.8078 391.667 57.8078 389C57.8078 386.333 59.6745 384.6 63.4078 383.8L69.4078 382.6C74.7411 381.533 78.7411 379 81.4078 375C84.0745 370.733 86.3411 364.867 88.2078 357.4L150.208 107.4C150.741 104.733 151.541 103 152.608 102.2C153.941 101.4 155.141 101 156.208 101C157.541 101 158.741 101.4 159.808 102.2C161.141 103 162.074 104.733 162.608 107.4L225.808 361C227.674 368.467 229.808 373.667 232.208 376.6C234.608 379.533 238.341 381.533 243.408 382.6L249.408 383.8C253.141 384.6 255.008 386.333 255.008 389C255.008 391.667 253.008 393 249.008 393H180.608C176.874 393 175.008 391.533 175.008 388.6C175.008 385.667 177.274 384.067 181.808 383.8L189.408 383C193.941 382.467 196.741 381 197.808 378.6C199.141 376.2 199.141 372.067 197.808 366.2L182.608 304.2C181.008 297.267 176.608 293.8 169.408 293.8H127.408C120.474 293.8 116.074 297.267 114.208 304.2L100.608 357.8C96.6078 373 100.608 381.4 112.608 383L118.608 383.8C123.141 384.6 125.408 386.2 125.408 388.6C125.408 391.533 123.541 393 119.808 393H63.8078ZM126.208 281.8H170.208C174.474 281.8 176.208 279.533 175.408 275L149.808 167.8H147.808L121.008 275C120.208 279.533 121.941 281.8 126.208 281.8ZM423.914 396.6C400.714 396.6 385.914 381.4 379.514 351L370.314 306.6C367.381 292.2 364.047 281.267 360.314 273.8C356.847 266.333 351.914 261.267 345.514 258.6C339.381 255.933 330.847 254.6 319.914 254.6C316.181 254.6 313.247 255.667 311.114 257.8C308.981 259.667 307.914 262.067 307.914 265V365C307.914 370.6 308.981 374.467 311.114 376.6C313.247 378.467 318.047 380.067 325.514 381.4L340.314 383.8C343.247 384.333 344.714 385.8 344.714 388.2C344.714 391.4 342.714 393 338.714 393H257.514C253.514 393 251.514 391.533 251.514 388.6C251.514 386.2 253.247 384.6 256.714 383.8L265.914 382.2C271.514 381.133 275.114 379.667 276.714 377.8C278.581 375.933 279.514 372.2 279.514 366.6V131.4C279.514 125.8 278.581 122.067 276.714 120.2C275.114 118.333 271.514 116.867 265.914 115.8L256.714 114.2C253.247 113.4 251.514 111.8 251.514 109.4C251.514 106.467 253.514 105 257.514 105H338.714C354.447 105 368.447 108.067 380.714 114.2C392.981 120.333 402.581 128.867 409.514 139.8C416.447 150.467 419.914 162.867 419.914 177C419.914 193.8 414.847 209 404.714 222.6C394.581 235.933 381.781 245.4 366.314 251C364.447 251.533 363.381 252.467 363.114 253.8C363.114 254.867 364.047 255.8 365.914 256.6C374.447 260.6 381.114 266.2 385.914 273.4C390.981 280.6 394.847 290.2 397.514 302.2L406.314 343C409.247 356.867 412.714 366.733 416.714 372.6C420.714 378.467 425.781 381.4 431.914 381.4C434.047 381.4 435.914 381.133 437.514 380.6C439.381 379.8 441.647 378.467 444.314 376.6C446.447 375.267 448.447 375 450.314 375.8C452.181 376.333 453.114 377.667 453.114 379.8C453.114 384.333 450.181 388.333 444.314 391.8C438.447 395 431.647 396.6 423.914 396.6ZM334.714 244.6C352.847 244.6 366.581 238.6 375.914 226.6C385.247 214.333 389.914 198.067 389.914 177.8C389.914 158.067 384.447 142.733 373.514 131.8C362.847 120.6 348.047 115 329.114 115C314.981 115 307.914 120.333 307.914 131V222.6C307.914 237.267 316.847 244.6 334.714 244.6Z" fill="black"/>
</svg>
